<svg width="86" height="86" viewBox="0 0 86 86" fill="none" xmlns="http://www.w3.org/2000/svg">
<path d="M32.7927 30.3842C27.1991 24.7906 27.1991 15.7216 32.7927 10.1281C38.3862 4.53447 47.4552 4.53447 53.0488 10.1281C58.6424 15.7216 58.6424 24.7906 53.0488 30.3842L45.8582 37.5748C44.2359 39.1972 41.6056 39.1972 39.9833 37.5748L32.7927 30.3842Z" fill="black"/>
<path d="M53.0488 55.4572C58.6424 61.0507 58.6424 70.1197 53.0488 75.7133C47.4552 81.3069 38.3863 81.3069 32.7927 75.7133C27.1991 70.1197 27.1991 61.0507 32.7927 55.4572L39.9833 48.2665C41.6056 46.6442 44.2359 46.6442 45.8582 48.2665L53.0488 55.4572Z" fill="black"/>
<path d="M55.4572 32.7926C61.0508 27.199 70.1198 27.199 75.7133 32.7926C81.3069 38.3862 81.3069 47.4552 75.7133 53.0488C70.1198 58.6424 61.0508 58.6424 55.4572 53.0488L48.2666 45.8582C46.6442 44.2358 46.6442 41.6056 48.2666 39.9833L55.4572 32.7926Z" fill="black"/>
<path d="M30.3843 53.0488C24.7907 58.6424 15.7217 58.6424 10.1281 53.0488C4.53456 47.4552 4.53456 38.3862 10.1281 32.7926C15.7217 27.1991 24.7907 27.1991 30.3843 32.7926L37.5749 39.9833C39.1972 41.6056 39.1972 44.2359 37.5749 45.8582L30.3843 53.0488Z" fill="black"/>
</svg>
