<svg width="46" height="45" viewBox="0 0 46 45" fill="none" xmlns="http://www.w3.org/2000/svg">
<path fill-rule="evenodd" clip-rule="evenodd" d="M16.9675 6.00003C13.986 6.00003 11.1266 7.15896 9.01841 9.22186C6.91019 11.2848 5.72581 14.0827 5.72581 17C5.72581 19.9174 6.91019 22.7153 9.01841 24.7782C11.1266 26.8411 13.986 28 16.9675 28C19.9489 28 22.8083 26.8411 24.9165 24.7782C27.0247 22.7153 28.2091 19.9174 28.2091 17C28.2091 14.0827 27.0247 11.2848 24.9165 9.22186C22.8083 7.15896 19.9489 6.00003 16.9675 6.00003ZM0.104981 17C0.104642 14.4032 0.730698 11.843 1.93223 9.52757C3.13376 7.21215 4.87684 5.20693 7.01971 3.67498C9.16257 2.14303 11.6447 1.12762 14.2642 0.711323C16.8838 0.29503 19.5668 0.489613 22.095 1.27925C24.6231 2.06888 26.9252 3.43126 28.8138 5.2556C30.7024 7.07993 32.1244 9.3147 32.9639 11.7781C33.8035 14.2416 34.0369 16.8642 33.6454 19.4326C33.2538 22.0009 32.2482 24.4426 30.7104 26.559L44.2481 39.8058C44.7601 40.3244 45.0433 41.0191 45.0369 41.7401C45.0305 42.4612 44.735 43.1509 44.2139 43.6608C43.6928 44.1707 42.9879 44.4599 42.2511 44.4661C41.5142 44.4724 40.8043 44.1952 40.2742 43.6943L26.7393 30.4503C24.2165 32.2056 21.2487 33.2475 18.161 33.4619C15.0732 33.6762 11.9848 33.0548 9.23404 31.6657C6.48329 30.2766 4.17639 28.1734 2.56612 25.5865C0.955862 22.9996 0.104379 20.029 0.104981 17Z" fill="black"/>
</svg>
